PathFileType	4	(X/Y/Z)	TVC_32_BWA_06_walk_RCNL2025.trc
DataRate	CameraRate	NumFrames	NumMarkers	Units	OrigDataRate	OrigDataStartFrame	OrigNumFrames
100	100	13	27	mm	100	290	386
Frame#	Time	R_Shoulder			L_Shoulder			C7			J_Notch			R_Elbow			L_Elbow			R_Wrist			L_Wrist			R_Asis			L_Asis			R_Psis			L_Psis			Sacral			Thoracic			Sternum			R_Thigh_Lateral			R_Knee_Lateral			R_Shank_Lateral			R_Ankle_Lateral			R_Heel			R_Toe			L_Thigh_Lateral			L_Knee_Lateral			L_Shank_Lateral			L_Ankle_Lateral			L_Heel			L_Toe		
		X1	Y1	Z1	X2	Y2	Z2	X3	Y3	Z3	X4	Y4	Z4	X5	Y5	Z5	X6	Y6	Z6	X7	Y7	Z7	X8	Y8	Z8	X9	Y9	Z9	X10	Y10	Z10	X11	Y11	Z11	X12	Y12	Z12	X13	Y13	Z13	X14	Y14	Z14	X15	Y15	Z15	X16	Y16	Z16	X17	Y17	Z17	X18	Y18	Z18	X19	Y19	Z19	X20	Y20	Z20	X21	Y21	Z21	X22	Y22	Z22	X23	Y23	Z23	X24	Y24	Z24	X25	Y25	Z25	X26	Y26	Z26	X27	Y27	Z27
290	2.89000000	383.971832	1440.308228	558.560974	312.834259	1417.298584	195.544205	306.087250	1482.564453	386.093658	462.853912	1378.397217	368.103302	475.343384	1120.406494	706.071289	177.288162	1114.310303	114.705093	669.875702	930.138000	660.205414	227.639336	844.867981	107.100693	396.180756	983.538269	538.162842	386.679657	993.362183	248.347855	204.351089	984.377502	450.383484	203.440948	978.338623	349.309937	203.896019	981.358063	399.846710	221.560730	1226.255981	401.881531	479.753601	1231.835327	370.661194	301.523438	598.295349	584.260437	320.477478	460.585968	515.304321	216.885605	273.407532	562.398071	129.334427	80.197098	478.664551	61.888603	64.714714	419.779724	263.099182	38.648968	463.595703	467.322906	682.940491	158.823151	562.173950	538.100159	203.576431	585.668091	379.889893	131.235580	711.404480	126.324623	173.725357	656.821838	80.255623	222.593353	852.080872	146.457474	196.115143
291	2.90000000	390.056091	1439.899292	557.068909	319.521881	1416.143066	193.986221	312.360382	1481.684326	384.372406	469.503265	1378.035522	366.815826	483.142365	1120.545044	704.645569	183.925201	1113.122192	113.901077	679.124908	932.227295	656.689819	233.731125	843.547333	107.154449	403.065491	982.451233	537.353149	395.444489	992.205566	247.401474	211.905869	983.643616	448.371674	211.583755	977.540161	347.300842	211.744812	980.591888	397.836258	228.830276	1225.029541	400.087006	486.961456	1231.532349	369.769409	305.292175	597.981750	583.538025	323.733887	460.019318	515.100159	218.528946	273.740051	562.240234	129.662567	80.930794	478.758209	62.148823	65.982224	419.842682	263.163818	38.670406	463.677277	475.049103	680.664612	158.406647	567.491089	534.894470	204.490265	590.976135	376.644104	132.274673	715.092651	122.509048	175.547073	660.388123	76.827728	224.217773	855.667603	142.072159	198.986786
292	2.91000000	396.290436	1439.604736	555.504944	326.419983	1415.080078	192.360992	318.816071	1480.898804	382.582214	476.332886	1377.757202	365.490967	490.985962	1120.807617	703.208679	190.885483	1111.982910	112.981300	688.228577	934.297821	653.145874	240.146591	842.272827	107.115299	410.022217	981.443909	536.476074	404.378113	991.082947	246.317688	219.578598	983.068176	446.174225	219.870148	976.872620	345.131592	219.724373	979.970398	395.652908	236.280045	1223.883545	398.169800	494.343689	1231.319946	368.832092	308.985168	597.849426	582.760803	326.902618	459.579559	514.881836	220.144012	274.236481	562.100952	130.030197	81.778458	478.907593	62.455406	67.382187	419.952515	263.244232	38.707363	463.777740	482.091827	678.080200	158.036102	572.258972	531.442139	205.432678	595.606384	373.159332	133.308502	718.125366	118.457031	177.297958	663.218445	73.216187	225.794830	858.634216	137.478882	201.667084
293	2.92000000	402.674011	1439.424194	553.861877	333.517151	1414.132568	190.672150	325.458038	1480.212524	380.724518	483.347839	1377.575195	364.119385	498.881348	1121.192261	701.748779	198.166168	1110.913208	111.950104	697.202301	936.341217	649.592865	246.898041	841.065216	106.972363	417.105682	980.564697	535.500000	413.485016	990.002014	245.104156	227.376053	982.655640	443.802368	228.309250	976.346619	342.807617	227.842651	979.501129	393.304993	243.920395	1222.820312	396.118683	501.902008	1231.205688	367.835205	312.687988	597.891541	581.947815	330.016296	459.269714	514.648743	221.753250	274.905518	561.987244	130.440582	82.743668	479.113922	62.807823	68.920052	420.132263	263.340363	38.753845	463.896667	488.328217	675.136597	157.805939	576.496460	527.784546	206.383865	599.538391	369.454620	134.338379	720.493530	114.205719	178.987534	665.276062	69.491798	227.371155	860.986450	132.688248	204.141541
294	2.93000000	409.205750	1439.357178	552.133057	340.812469	1413.315430	188.916565	332.287933	1479.627319	378.796631	490.551208	1377.500610	362.689606	506.831360	1121.694946	700.253357	205.761826	1109.931885	110.806877	706.055481	938.344727	646.054932	253.996025	839.946960	106.714447	424.357635	979.848206	534.398499	422.762238	988.971252	243.776688	235.307907	982.406738	441.272766	236.905640	975.973572	340.339172	236.106773	979.190155	390.805969	251.758759	1221.843018	393.928375	509.638214	1231.195312	366.768555	316.470917	598.100891	581.116882	333.104095	459.092957	514.398193	223.374969	275.751038	561.905823	130.894196	83.828270	479.379578	63.206871	70.601547	420.401855	263.450012	38.802116	464.035583	493.819763	671.885254	157.705765	580.232971	523.973511	207.320526	602.776489	365.564667	135.364487	722.212524	109.810791	180.617706	666.558044	65.740486	228.981659	862.747925	127.707031	206.400177
295	2.94000000	415.885284	1439.403809	550.313538	348.315033	1412.639038	187.085144	339.304321	1479.142456	376.791901	497.942535	1377.540527	361.189545	514.836060	1122.309814	698.710876	213.662857	1109.053711	109.548241	714.788849	940.289429	642.560730	261.445602	838.940125	106.332336	431.796234	979.302673	533.161133	432.198181	988.001099	242.355957	243.384689	982.321411	438.607117	245.655502	975.763916	337.742035	244.520096	979.042664	388.174576	259.795807	1220.958740	391.602783	517.553528	1231.294067	365.622986	320.381500	598.467590	580.278381	336.191711	459.052124	514.120850	225.028595	276.770203	561.857422	131.393097	85.036263	479.715759	63.655766	72.433807	420.775574	263.570618	38.845917	464.196381	498.761078	668.459167	157.653107	583.504150	520.069641	208.218735	605.351074	361.542328	136.384949	723.334595	105.350639	182.180832	667.126221	62.050262	230.630035	863.980713	122.549171	208.433578
296	2.95000000	422.714508	1439.567017	548.400635	356.036774	1412.111206	185.166458	346.503571	1478.758301	374.701965	505.518677	1377.698364	359.609650	522.891968	1123.027344	697.110718	221.854782	1108.290405	108.169884	723.394684	942.150269	639.140289	269.246368	838.064117	105.819920	439.425446	978.912476	531.790588	441.771515	987.105103	240.863647	251.614059	982.400818	435.835266	254.543640	975.729309	335.038666	253.078850	979.065063	385.436966	268.026276	1220.178467	389.155365	525.648560	1231.506470	364.387695	324.443665	598.980225	579.429993	339.302429	459.151031	513.799866	226.738235	277.956390	561.836060	131.945297	86.378448	480.138031	64.159691	74.426407	421.260101	263.700348	38.880428	464.379333	503.369232	665.013000	157.556976	586.351013	516.145569	209.054794	607.317505	357.462158	137.394455	723.965149	100.932877	183.654617	667.136108	58.502258	232.271698	864.803650	117.248375	210.224304
297	2.96000000	429.699615	1439.854858	546.394104	363.985046	1411.735840	183.150314	353.882446	1478.480347	372.519318	513.276733	1377.976074	357.944641	530.990356	1123.835083	695.441223	230.320892	1107.653320	106.666275	731.858032	943.896973	635.821503	277.396202	837.334137	105.173111	447.247314	978.648865	530.292480	451.447021	986.300781	239.321823	259.996796	982.648071	432.997681	263.543671	975.885193	332.258698	261.770233	979.266632	382.628189	276.442108	1219.517944	386.608948	533.922607	1231.837158	363.050201	328.664062	599.632446	578.556274	342.459686	459.394897	513.414124	228.532761	279.305328	561.833374	132.564468	87.873589	480.652191	64.726227	76.592613	421.854309	263.838959	38.900341	464.585480	507.807556	661.688477	157.351303	588.821960	512.292053	209.803574	608.758301	353.425751	138.380341	724.275024	96.697723	184.997040	666.832275	55.188519	233.815674	865.401794	111.870270	211.738190
298	2.97000000	436.853241	1440.281616	544.295166	372.160431	1411.513184	181.029312	361.441681	1478.322632	370.238525	521.216248	1378.375854	356.192108	539.118103	1124.723145	693.689575	239.045792	1107.153809	105.030724	740.158752	945.496033	632.627411	285.895782	836.762268	104.385399	455.266541	978.480408	528.668579	461.171539	985.609375	237.753708	268.523590	983.069031	430.144073	272.620605	976.251282	329.436646	270.572098	979.660156	379.790359	285.033295	1219.000000	383.995850	542.371887	1232.290771	361.597443	333.040375	600.428284	577.632874	345.691071	459.790283	512.943848	230.443527	280.818756	561.842834	133.266190	89.544220	481.248108	65.367363	78.950150	422.551880	263.988892	38.900440	464.817780	512.166321	658.609253	156.993515	590.976685	508.621460	210.434402	609.788452	349.564697	139.314468	724.498962	92.813965	186.145370	666.500244	52.247707	235.152130	866.016357	106.518791	212.920029
299	2.98000000	444.195648	1440.869019	542.104553	380.557861	1411.445557	178.800705	369.187653	1478.307739	367.856964	529.338257	1378.900757	354.349365	547.260010	1125.688599	691.846069	248.017120	1106.802612	103.256035	748.274078	946.916016	629.574463	294.750717	836.359985	103.443752	463.488281	978.381531	526.914734	470.877930	985.059692	236.178253	277.174103	983.673218	427.330353	281.734192	976.851929	326.611969	279.454147	980.262573	376.971161	293.786407	1218.656128	381.357178	550.989380	1232.874878	360.015533	337.562347	601.379517	576.632202	349.029907	460.344910	512.376160	232.500092	282.506683	561.860413	134.066513	91.409416	481.910278	66.101036	81.520866	423.344421	264.157806	38.880817	465.075562	516.473633	655.883789	156.452576	592.894409	505.264709	210.904816	610.561401	346.036560	140.143600	724.908142	89.457527	187.026031	666.405945	49.861973	236.185699	866.903809	101.328522	213.698273
300	2.99000000	451.755798	1441.644653	539.820679	389.165527	1411.539307	176.468536	377.132904	1478.463013	365.376129	537.643677	1379.556641	352.410797	555.401855	1126.737793	689.907776	257.225525	1106.610229	101.334816	756.180878	948.134491	626.670990	303.969376	836.139404	102.329823	471.914124	978.336792	525.025269	480.495758	984.692993	234.597916	285.920074	984.474304	424.616150	290.843109	977.715637	323.832794	288.381592	981.094971	374.224472	302.682739	1218.524780	378.740204	559.763367	1233.600220	358.289886	342.218231	602.495422	575.528076	352.513458	461.067047	511.707581	234.726395	284.389709	561.882385	134.983505	93.481819	482.628662	66.950439	84.330246	424.222198	264.360840	38.852375	465.349823	520.714172	653.602905	155.702316	594.688721	502.359222	211.153992	611.270447	343.008179	140.783051	725.738220	86.759407	187.575851	666.735901	48.187313	236.860489	868.253784	96.434441	214.002640
301	3.00000000	459.570190	1442.638672	537.438232	397.964905	1411.805664	174.043610	385.293640	1478.816284	362.802612	546.132812	1380.352539	350.367737	563.529114	1127.884033	687.877686	266.663757	1106.587646	99.260246	763.857147	949.141815	623.916901	313.559586	836.113953	101.024448	480.538910	978.342224	522.996460	489.960815	984.561096	232.990540	294.732086	985.488464	422.059143	299.909668	978.870605	321.156494	297.320877	982.179535	371.607819	311.699127	1218.642944	376.193695	568.677734	1234.476562	356.407227	347.009613	603.777100	574.306274	356.180267	461.965942	510.947754	237.140106	286.497284	561.906311	136.038834	95.772217	483.397125	67.942924	87.407005	425.172180	264.618805	38.834961	465.627197	524.855164	651.829224	154.721848	596.521179	500.026123	211.104752	612.142090	340.623810	141.120071	727.082947	84.741173	187.758896	667.539490	47.265217	237.174500	870.094177	91.917740	213.794601
302	3.01000000	467.677734	1443.876465	534.949646	406.932739	1412.258057	171.541306	393.683105	1479.387695	360.150085	554.803101	1381.296143	348.209930	571.623962	1129.140869	685.761230	276.325500	1106.746948	97.026962	771.282013	949.940704	621.304535	323.526825	836.298126	99.510765	489.348389	978.407410	520.827148	499.220825	984.713928	231.312927	303.584656	986.729919	419.706055	308.902557	980.335083	318.643036	306.243607	983.532501	369.174545	320.811859	1219.033936	373.760773	577.713379	1235.506348	354.359161	351.957214	605.222778	572.978699	360.067291	463.052643	510.125092	239.751755	288.858643	561.935181	137.257782	98.295074	484.209930	69.109467	90.780891	426.177155	264.951813	38.847744	465.896423	528.881592	650.589233	153.498367	598.591980	498.339630	210.682236	613.415283	338.962036	141.036896	728.828918	83.293228	187.566711	668.716003	46.994869	237.173859	872.266174	87.758614	213.090775
